<svg version="1.0" xmlns="http://www.w3.org/2000/svg" width="192" height="192" viewBox="0 0 144 144"><path d="M61.2 7.1c-12.1 2-25.9 9.3-34.8 18.4C-.1 52.7 2.8 97 32.9 121c12.7 10.2 22.3 13.5 39.1 13.5 13 0 18.4-1.2 28.1-6.2 16.2-8.3 28-22.7 33.5-40.8 3-9.5 2.5-26.7-.9-37.1-9.9-30.1-40.3-48.5-71.5-43.3zM87.5 11c32.3 8.3 51.9 41.7 43.5 74.5-8.3 32.3-41.7 51.9-74.5 43.5C24.2 120.7 4.6 87.3 13 54.5 21.3 22.2 54.7 2.6 87.5 11z"/><path d="M38 70.5V107h32V92H57.3l-.7-4.6c-.3-2.6-.6-6-.6-7.5 0-2.9.1-2.9 6-2.9h6V63H57.3l-.7-4.6c-1.3-9.6-1.4-9.4 5.9-9.4H69V34H38v36.5zm38-.1V107h18V77.3l7.1-.5c12.4-.9 14.9-4.2 14.9-20.3 0-12.7-1.4-16.7-7-20-3-1.7-5.6-2-18.2-2.3L76 33.8v36.6zm22.9-23.5c1.9 1.2 2.7 11.6 1.2 15.3C99.4 64 98.3 65 97 65c-1.9 0-2-.6-2-9.5 0-9.7.5-10.7 3.9-8.6z"/></svg>