<svg xmlns="http://www.w3.org/2000/svg" xmlns:xlink="http://www.w3.org/1999/xlink" xmlns:svgjs="http://svgjs.dev/svgjs" width="1000" height="623"><svg viewBox="0 0 396 247" data-background-color="#ffffff" height="623" width="1000" xmlns="http://www.w3.org/2000/svg" xmlns:xlink="http://www.w3.org/1999/xlink" transform="translate(-.606 .252)"><svg height="247.2" width="395.52" transform="translate(.24 -.1)"><svg/><svg height="247.2" width="395.52"><svg height="40.442" width="244.431" transform="translate(75.544 103.379)"><svg height="40.442" width="244.431"><svg height="40.442" width="244.431"><svg height="40.442" width="244.431"><svg height="40.442" width="244.431"><svg height="40.442" width="244.431"><svg width="244.431" viewBox="3.6 -35.85 277.692 45.95" height="40.442" data-palette-color="#0d73fc"><path d="M23.6-31.35q0 .5-.5.5H8.6q-.2 0-.2.2v10.8q0 .2.2.2h9.55q.5 0 .5.5V-16q0 .5-.5.5H8.6q-.2 0-.2.2v10.95q0 .2.2.2h14.5q.5 0 .5.5V-.5q0 .5-.5.5h-19q-.5 0-.5-.5v-34q0-.5.5-.5h19q.5 0 .5.5v3.15zm15.95 5.55q3.65 0 5.67 2.25 2.03 2.25 2.03 6.2V-.5q0 .5-.5.5h-3.8q-.5 0-.5-.5v-16.15q0-2.3-1.18-3.65-1.17-1.35-3.17-1.35-2.05 0-3.28 1.37-1.22 1.38-1.22 3.68V-.5q0 .5-.5.5h-3.8q-.5 0-.5-.5v-24.45q0-.5.5-.5h3.8q.5 0 .5.5v1.55q0 .15.07.17.08.03.18-.12 1.95-2.45 5.7-2.45zm22.7 22.05q1.7 0 2.87-.83 1.18-.82 1.77-2.27.16-.45.61-.35l3.4.75q.5.15.35.6-.95 2.95-3.31 4.6Q65.59.4 62.2.4q-3.9 0-6.3-1.95-2.41-1.95-3.06-5.35-.25-1.4-.32-2.98-.07-1.57-.07-4.17 0-2.55.25-4.05.45-3.5 2.95-5.63 2.5-2.12 6.3-2.12 4.14 0 6.69 2.35 2.55 2.35 2.86 6.2.15 1.7.15 6.25 0 .5-.5.5h-13.7q-.2 0-.2.2 0 1.4.15 2.45.25 1.85 1.55 3t3.3 1.15zM62-21.7q-1.91 0-3.13 1.15t-1.47 3q-.15 1.35-.15 2.95 0 .2.2.2h9.19q.2 0 .2-.2-.09-2-.2-2.9-.25-1.85-1.5-3.03Q63.9-21.7 62-21.7zm25.44-4q1.5 0 2.55.6.35.15.25.6l-.75 3.8q-.05.5-.6.3-.75-.25-1.65-.25-.65 0-.95.05-1.95.15-3.25 1.78-1.3 1.62-1.3 3.87V-.5q0 .5-.5.5h-3.8q-.5 0-.5-.5v-24.45q0-.5.5-.5h3.8q.5 0 .5.5v3.2q0 .15.08.17.07.03.12-.07 1.8-4.05 5.5-4.05zm19.45.75q0-.5.5-.5h3.8q.5 0 .5.5V-1q0 11.1-11.9 11.1-1.05 0-1.6-.05-.5-.05-.5-.55l.1-3.35q0-.25.15-.37.15-.13.35-.08 4.7.2 6.65-1.45 1.95-1.65 1.95-5.6v-.95q0-.1-.07-.15-.08-.05-.18.05-1.95 2.4-5.45 2.4-3.25 0-5.47-1.93-2.23-1.92-2.73-5.37-.3-1.6-.3-5.45 0-4.15.35-5.8.45-3.35 2.58-5.33 2.12-1.97 5.37-1.97 3.6 0 5.65 2.35.1.1.18.05.07-.05.07-.15v-1.35zm-.1 16.8q.1-2.6.1-4.65 0-2.8-.15-4.75-.2-1.8-1.4-2.98-1.2-1.17-3.05-1.17-1.8 0-3.02 1.17-1.23 1.18-1.48 2.98-.3 1.95-.3 4.75 0 2.6.25 4.6.25 1.85 1.5 3t3.1 1.15q1.85 0 3.05-1.15 1.2-1.15 1.4-2.95zm13.6-21.3q-1.4 0-2.3-.9-.9-.9-.9-2.3 0-1.45.9-2.33.9-.87 2.3-.87t2.3.9q.9.9.9 2.3t-.93 2.3q-.92.9-2.27.9zM118.44 0q-.5 0-.5-.5v-24.45q0-.5.5-.5h3.8q.5 0 .5.5V-.5q0 .5-.5.5h-3.8zm19.55-25.85q4.15 0 6.65 2.32 2.5 2.33 2.5 6.08V-.5q0 .5-.5.5h-3.8q-.5 0-.5-.5v-1.45q0-.1-.08-.13-.07-.02-.17.08-2.25 2.4-6.25 2.4-3.25 0-5.55-1.78-2.3-1.77-2.3-5.72 0-4.1 2.67-6.23 2.68-2.12 7.28-2.12h4.2q.2 0 .2-.2v-1.4q0-2.15-1.13-3.4-1.12-1.25-3.22-1.25-1.65 0-2.73.82-1.07.83-1.32 2.23-.05.45-.55.45l-4.1-.25q-.2 0-.35-.12-.15-.13-.1-.33.3-3.1 2.82-5.03 2.53-1.92 6.33-1.92zm-1.1 22.15q2.2 0 3.82-1.25 1.63-1.25 1.63-3.35v-3.2q0-.2-.2-.2h-3.85q-2.45 0-3.93 1.1-1.47 1.1-1.47 3.2 0 1.85 1.1 2.77 1.1.93 2.9.93zm37.99-31.35q4.25 0 6.83 2.78 2.57 2.77 2.57 7.32 0 4.45-2.57 7.17-2.58 2.73-6.83 2.73h-6.7q-.2 0-.2.2V-.5q0 .5-.5.5h-3.8q-.5 0-.5-.5v-34.05q0-.5.5-.5h11.2zm-.7 16.15q2.4 0 3.88-1.63 1.47-1.62 1.47-4.32 0-2.75-1.47-4.4-1.48-1.65-3.88-1.65h-6q-.2 0-.2.2v11.6q0 .2.2.2h6zM197.53.4q-3.9 0-6.4-2.03-2.5-2.02-3-5.52-.4-2.5-.4-5.6 0-3.15.4-5.55.5-3.45 3-5.5t6.4-2.05q3.85 0 6.35 2.05 2.5 2.05 3 5.45.4 2.15.4 5.6 0 3.45-.4 5.6-.5 3.5-2.98 5.52Q201.43.4 197.53.4zm0-4.15q1.85 0 3.12-1.15 1.28-1.15 1.58-3.05.25-2.25.25-4.8 0-2.6-.25-4.75-.3-1.9-1.58-3.05-1.27-1.15-3.17-1.15-1.85 0-3.13 1.15-1.27 1.15-1.57 3.05-.2 1.75-.2 4.75 0 3.05.2 4.8.3 1.9 1.57 3.05 1.28 1.15 3.18 1.15zM216.88 0q-.45 0-.55-.45l-6.25-24.45-.05-.2q0-.35.45-.35h3.8q.45 0 .55.45l3.95 17.35q.05.15.1.15t.1-.15l4-17.35q.1-.45.55-.45h3.4q.45 0 .55.45l4.1 17.4q.05.15.1.15t.1-.15l4.05-17.4q.1-.45.55-.45l3.75.05q.25 0 .37.15.13.15.03.4l-6.25 24.4q-.05.45-.55.45h-3.85q-.45 0-.55-.45l-4.05-16.65q-.05-.15-.1-.15t-.1.15l-3.9 16.65q-.1.45-.55.45h-3.75zm36.39-3.75q1.7 0 2.88-.83 1.17-.82 1.77-2.27.15-.45.6-.35l3.4.75q.5.15.35.6-.95 2.95-3.3 4.6Q256.62.4 253.22.4q-3.9 0-6.3-1.95t-3.05-5.35q-.25-1.4-.32-2.98-.08-1.57-.08-4.17 0-2.55.25-4.05.45-3.5 2.95-5.63 2.5-2.12 6.3-2.12 4.15 0 6.7 2.35t2.85 6.2q.15 1.7.15 6.25 0 .5-.5.5h-13.7q-.2 0-.2.2 0 1.4.15 2.45.25 1.85 1.55 3t3.3 1.15zm-.25-17.95q-1.9 0-3.12 1.15-1.23 1.15-1.48 3-.15 1.35-.15 2.95 0 .2.2.2h9.2q.2 0 .2-.2-.1-2-.2-2.9-.25-1.85-1.5-3.03-1.25-1.17-3.15-1.17zm25.45-4q1.5 0 2.55.6.35.15.25.6l-.75 3.8q-.05.5-.6.3-.75-.25-1.65-.25-.65 0-.95.05-1.95.15-3.25 1.78-1.3 1.62-1.3 3.87V-.5q0 .5-.5.5h-3.8q-.5 0-.5-.5v-24.45q0-.5.5-.5h3.8q.5 0 .5.5v3.2q0 .15.08.17.07.03.12-.07 1.8-4.05 5.5-4.05z" fill="#0d73fc" class="undefined-text-0" data-fill-palette-color="primary"/></svg></svg></svg></svg></svg></svg></svg><path d="M183.909 97.379v-62.25H6.966v176.942h176.943v-62.25h-3.648v58.603H10.613V38.776h169.648v58.603z" fill="#0d73fc" stroke="transparent" data-fill-palette-color="primary"/></svg></svg></svg></svg>