<svg width="2806.349" height="2735.238" xmlns="http://www.w3.org/2000/svg"><defs><path id="b" d="M687.071 2380.702h1700.501v584.011H687.071z"/><path id="a" d="M99.625 1006.559h3583.076v1298.565H99.625z"/></defs><path d="M1423.955 51.53l89.32 176.062-117.662-60.118-38.647-25.766zM1287.4 245.628l80.73 72.142 245.628 109.073 89.32 175.203-371.878-147.72-109.072-119.379zm-133.12 176.921l136.555 174.344 474.938 169.191 73.86 140.85-583.152-180.356-154.59-234.463z" fill="#34d1c9"/><path d="M1063.243 547.94l162.32 283.416 644.13 175.203 58.4 114.226-731.73-170.05-173.486-346.971z" fill="#24b3ab"/><path d="M983.37 653.576l-32.635 45.519 196.674 504.138 638.117 104.779 164.897-67.848-772.096-152.874z" fill="#1a918b"/><path d="M918.958 741.178l201.827 570.27 480.95 63.553-186.368 81.59-318.63-30.06-206.98-648.423z" fill="#106964"/><path d="M849.392 835.65l17.177-19.753 203.544 713.695 126.25 9.447-139.991 61.837z" fill="#0b4d49"/><text style="line-height:1.25;-inkscape-font-specification:'Montserrat, Medium';font-variant-ligatures:normal;font-variant-caps:normal;font-variant-numeric:normal;font-variant-east-asian:normal;white-space:pre;shape-inside:url(#a)" transform="translate(-36.429 580.575)" font-weight="500" font-size="680.315" font-family="Montserrat" fill="#f2f2f2"><tspan x="99.625" y="1631.832"><tspan dx="0 0 0 0 0 0.00012207031">Energia</tspan></tspan></text><text style="line-height:1.25;-inkscape-font-specification:'Montserrat, Normal';font-variant-ligatures:normal;font-variant-caps:normal;font-variant-numeric:normal;font-variant-east-asian:normal;white-space:pre;shape-inside:url(#b)" transform="translate(152.262 -30.918)" font-weight="400" font-size="340.157" font-family="Montserrat" fill="#f2f2f2"><tspan x="687.07" y="2693.337">Power</tspan></text></svg>