<svg xmlns="http://www.w3.org/2000/svg" version="1.1" xmlns:xlink="http://www.w3.org/1999/xlink" xmlns:svgjs="http://svgjs.dev/svgjs" width="1000" height="623" viewBox="0 0 1000 623"><g transform="matrix(1,0,0,1,-0.6060606060606233,0.2522267206477409)"><svg viewBox="0 0 396 247" data-background-color="#ffffff" preserveAspectRatio="xMidYMid meet" height="623" width="1000" xmlns="http://www.w3.org/2000/svg" xmlns:xlink="http://www.w3.org/1999/xlink"><g id="tight-bounds" transform="matrix(1,0,0,1,0.2400000000000091,-0.09999999999999432)"><svg viewBox="0 0 395.52 247.2" height="247.2" width="395.52"><g><svg></svg></g><g><svg viewBox="0 0 395.52 247.2" height="247.2" width="395.52"><g transform="matrix(1,0,0,1,75.54432000000001,103.37903801583222)"><svg viewBox="0 0 244.43135999999996 40.44192396833555" height="40.44192396833555" width="244.43135999999996"><g><svg viewBox="0 0 244.43135999999996 40.44192396833555" height="40.44192396833555" width="244.43135999999996"><g><svg viewBox="0 0 244.43135999999996 40.44192396833555" height="40.44192396833555" width="244.43135999999996"><g><svg viewBox="0 0 244.43135999999996 40.44192396833555" height="40.44192396833555" width="244.43135999999996"><g><svg viewBox="0 0 244.43135999999996 40.44192396833555" height="40.44192396833555" width="244.43135999999996"><g><svg viewBox="0 0 244.43135999999996 40.44192396833555" height="40.44192396833555" width="244.43135999999996"><g transform="matrix(1,0,0,1,0,0)"><svg width="244.43135999999996" viewBox="3.5999999046325684 -35.849998474121094 277.69219970703125 45.94999694824219" height="40.44192396833555" data-palette-color="#0d73fc"><path d="M23.6-31.35Q23.6-30.85 23.1-30.85L23.1-30.85 8.6-30.85Q8.4-30.85 8.4-30.65L8.4-30.65 8.4-19.85Q8.4-19.65 8.6-19.65L8.6-19.65 18.15-19.65Q18.65-19.65 18.65-19.15L18.65-19.15 18.65-16Q18.65-15.5 18.15-15.5L18.15-15.5 8.6-15.5Q8.4-15.5 8.4-15.3L8.4-15.3 8.4-4.35Q8.4-4.15 8.6-4.15L8.6-4.15 23.1-4.15Q23.6-4.15 23.6-3.65L23.6-3.65 23.6-0.5Q23.6 0 23.1 0L23.1 0 4.1 0Q3.6 0 3.6-0.5L3.6-0.5 3.6-34.5Q3.6-35 4.1-35L4.1-35 23.1-35Q23.6-35 23.6-34.5L23.6-34.5 23.6-31.35ZM39.55-25.8Q43.2-25.8 45.22-23.55 47.25-21.3 47.25-17.35L47.25-17.35 47.25-0.5Q47.25 0 46.75 0L46.75 0 42.95 0Q42.45 0 42.45-0.5L42.45-0.5 42.45-16.65Q42.45-18.95 41.27-20.3 40.1-21.65 38.1-21.65L38.1-21.65Q36.05-21.65 34.82-20.28 33.6-18.9 33.6-16.6L33.6-16.6 33.6-0.5Q33.6 0 33.1 0L33.1 0 29.3 0Q28.8 0 28.8-0.5L28.8-0.5 28.8-24.95Q28.8-25.45 29.3-25.45L29.3-25.45 33.1-25.45Q33.6-25.45 33.6-24.95L33.6-24.95 33.6-23.4Q33.6-23.25 33.67-23.23 33.75-23.2 33.85-23.35L33.85-23.35Q35.8-25.8 39.55-25.8L39.55-25.8ZM62.25-3.75Q63.95-3.75 65.12-4.58 66.3-5.4 66.89-6.85L66.89-6.85Q67.05-7.3 67.5-7.2L67.5-7.2 70.9-6.45Q71.4-6.3 71.25-5.85L71.25-5.85Q70.3-2.9 67.94-1.25 65.59 0.4 62.2 0.4L62.2 0.4Q58.3 0.4 55.9-1.55 53.49-3.5 52.84-6.9L52.84-6.9Q52.59-8.3 52.52-9.88 52.45-11.45 52.45-14.05L52.45-14.05Q52.45-16.6 52.7-18.1L52.7-18.1Q53.15-21.6 55.65-23.73 58.15-25.85 61.95-25.85L61.95-25.85Q66.09-25.85 68.64-23.5 71.19-21.15 71.5-17.3L71.5-17.3Q71.65-15.6 71.65-11.05L71.65-11.05Q71.65-10.55 71.15-10.55L71.15-10.55 57.45-10.55Q57.25-10.55 57.25-10.35L57.25-10.35Q57.25-8.95 57.4-7.9L57.4-7.9Q57.65-6.05 58.95-4.9 60.25-3.75 62.25-3.75L62.25-3.75ZM62-21.7Q60.09-21.7 58.87-20.55 57.65-19.4 57.4-17.55L57.4-17.55Q57.25-16.2 57.25-14.6L57.25-14.6Q57.25-14.4 57.45-14.4L57.45-14.4 66.64-14.4Q66.84-14.4 66.84-14.6L66.84-14.6Q66.75-16.6 66.64-17.5L66.64-17.5Q66.39-19.35 65.14-20.53 63.9-21.7 62-21.7L62-21.7ZM87.44-25.7Q88.94-25.7 89.99-25.1L89.99-25.1Q90.34-24.95 90.24-24.5L90.24-24.5 89.49-20.7Q89.44-20.2 88.89-20.4L88.89-20.4Q88.14-20.65 87.24-20.65L87.24-20.65Q86.59-20.65 86.29-20.6L86.29-20.6Q84.34-20.45 83.04-18.82 81.74-17.2 81.74-14.95L81.74-14.95 81.74-0.5Q81.74 0 81.24 0L81.24 0 77.44 0Q76.94 0 76.94-0.5L76.94-0.5 76.94-24.95Q76.94-25.45 77.44-25.45L77.44-25.45 81.24-25.45Q81.74-25.45 81.74-24.95L81.74-24.95 81.74-21.75Q81.74-21.6 81.82-21.58 81.89-21.55 81.94-21.65L81.94-21.65Q83.74-25.7 87.44-25.7L87.44-25.7ZM106.89-24.95Q106.89-25.45 107.39-25.45L107.39-25.45 111.19-25.45Q111.69-25.45 111.69-24.95L111.69-24.95 111.69-1Q111.69 10.1 99.79 10.1L99.79 10.1Q98.74 10.1 98.19 10.05L98.19 10.05Q97.69 10 97.69 9.5L97.69 9.5 97.79 6.15Q97.79 5.9 97.94 5.78 98.09 5.65 98.29 5.7L98.29 5.7Q102.99 5.9 104.94 4.25 106.89 2.6 106.89-1.35L106.89-1.35 106.89-2.3Q106.89-2.4 106.82-2.45 106.74-2.5 106.64-2.4L106.64-2.4Q104.69 0 101.19 0L101.19 0Q97.94 0 95.72-1.93 93.49-3.85 92.99-7.3L92.99-7.3Q92.69-8.9 92.69-12.75L92.69-12.75Q92.69-16.9 93.04-18.55L93.04-18.55Q93.49-21.9 95.62-23.88 97.74-25.85 100.99-25.85L100.99-25.85Q104.59-25.85 106.64-23.5L106.64-23.5Q106.74-23.4 106.82-23.45 106.89-23.5 106.89-23.6L106.89-23.6 106.89-24.95ZM106.79-8.15Q106.89-10.75 106.89-12.8L106.89-12.8Q106.89-15.6 106.74-17.55L106.74-17.55Q106.54-19.35 105.34-20.53 104.14-21.7 102.29-21.7L102.29-21.7Q100.49-21.7 99.27-20.53 98.04-19.35 97.79-17.55L97.79-17.55Q97.49-15.6 97.49-12.8L97.49-12.8Q97.49-10.2 97.74-8.2L97.74-8.2Q97.99-6.35 99.24-5.2 100.49-4.05 102.34-4.05L102.34-4.05Q104.19-4.05 105.39-5.2 106.59-6.35 106.79-8.15L106.79-8.15ZM120.39-29.45Q118.99-29.45 118.09-30.35 117.19-31.25 117.19-32.65L117.19-32.65Q117.19-34.1 118.09-34.98 118.99-35.85 120.39-35.85L120.39-35.85Q121.79-35.85 122.69-34.95 123.59-34.05 123.59-32.65L123.59-32.65Q123.59-31.25 122.66-30.35 121.74-29.45 120.39-29.45L120.39-29.45ZM118.44 0Q117.94 0 117.94-0.5L117.94-0.5 117.94-24.95Q117.94-25.45 118.44-25.45L118.44-25.45 122.24-25.45Q122.74-25.45 122.74-24.95L122.74-24.95 122.74-0.5Q122.74 0 122.24 0L122.24 0 118.44 0ZM137.99-25.85Q142.14-25.85 144.64-23.53 147.14-21.2 147.14-17.45L147.14-17.45 147.14-0.5Q147.14 0 146.64 0L146.64 0 142.84 0Q142.34 0 142.34-0.5L142.34-0.5 142.34-1.95Q142.34-2.05 142.26-2.08 142.19-2.1 142.09-2L142.09-2Q139.84 0.4 135.84 0.4L135.84 0.4Q132.59 0.4 130.29-1.38 127.99-3.15 127.99-7.1L127.99-7.1Q127.99-11.2 130.66-13.33 133.34-15.45 137.94-15.45L137.94-15.45 142.14-15.45Q142.34-15.45 142.34-15.65L142.34-15.65 142.34-17.05Q142.34-19.2 141.21-20.45 140.09-21.7 137.99-21.7L137.99-21.7Q136.34-21.7 135.26-20.88 134.19-20.05 133.94-18.65L133.94-18.65Q133.89-18.2 133.39-18.2L133.39-18.2 129.29-18.45Q129.09-18.45 128.94-18.57 128.79-18.7 128.84-18.9L128.84-18.9Q129.14-22 131.66-23.93 134.19-25.85 137.99-25.85L137.99-25.85ZM136.89-3.7Q139.09-3.7 140.71-4.95 142.34-6.2 142.34-8.3L142.34-8.3 142.34-11.5Q142.34-11.7 142.14-11.7L142.14-11.7 138.29-11.7Q135.84-11.7 134.36-10.6 132.89-9.5 132.89-7.4L132.89-7.4Q132.89-5.55 133.99-4.63 135.09-3.7 136.89-3.7L136.89-3.7ZM174.88-35.05Q179.13-35.05 181.71-32.27 184.28-29.5 184.28-24.95L184.28-24.95Q184.28-20.5 181.71-17.78 179.13-15.05 174.88-15.05L174.88-15.05 168.18-15.05Q167.98-15.05 167.98-14.85L167.98-14.85 167.98-0.5Q167.98 0 167.48 0L167.48 0 163.68 0Q163.18 0 163.18-0.5L163.18-0.5 163.18-34.55Q163.18-35.05 163.68-35.05L163.68-35.05 174.88-35.05ZM174.18-18.9Q176.58-18.9 178.06-20.53 179.53-22.15 179.53-24.85L179.53-24.85Q179.53-27.6 178.06-29.25 176.58-30.9 174.18-30.9L174.18-30.9 168.18-30.9Q167.98-30.9 167.98-30.7L167.98-30.7 167.98-19.1Q167.98-18.9 168.18-18.9L168.18-18.9 174.18-18.9ZM197.53 0.4Q193.63 0.4 191.13-1.63 188.63-3.65 188.13-7.15L188.13-7.15Q187.73-9.65 187.73-12.75L187.73-12.75Q187.73-15.9 188.13-18.3L188.13-18.3Q188.63-21.75 191.13-23.8 193.63-25.85 197.53-25.85L197.53-25.85Q201.38-25.85 203.88-23.8 206.38-21.75 206.88-18.35L206.88-18.35Q207.28-16.2 207.28-12.75L207.28-12.75Q207.28-9.3 206.88-7.15L206.88-7.15Q206.38-3.65 203.9-1.63 201.43 0.4 197.53 0.4L197.53 0.4ZM197.53-3.75Q199.38-3.75 200.65-4.9 201.93-6.05 202.23-7.95L202.23-7.95Q202.48-10.2 202.48-12.75L202.48-12.75Q202.48-15.35 202.23-17.5L202.23-17.5Q201.93-19.4 200.65-20.55 199.38-21.7 197.48-21.7L197.48-21.7Q195.63-21.7 194.35-20.55 193.08-19.4 192.78-17.5L192.78-17.5Q192.58-15.75 192.58-12.75L192.58-12.75Q192.58-9.7 192.78-7.95L192.78-7.95Q193.08-6.05 194.35-4.9 195.63-3.75 197.53-3.75L197.53-3.75ZM216.88 0Q216.43 0 216.33-0.45L216.33-0.45 210.08-24.9 210.03-25.1Q210.03-25.45 210.48-25.45L210.48-25.45 214.28-25.45Q214.73-25.45 214.83-25L214.83-25 218.78-7.65Q218.83-7.5 218.88-7.5 218.93-7.5 218.98-7.65L218.98-7.65 222.98-25Q223.08-25.45 223.53-25.45L223.53-25.45 226.93-25.45Q227.38-25.45 227.48-25L227.48-25 231.58-7.6Q231.63-7.45 231.68-7.45 231.73-7.45 231.78-7.6L231.78-7.6 235.83-25Q235.93-25.45 236.38-25.45L236.38-25.45 240.13-25.4Q240.38-25.4 240.5-25.25 240.63-25.1 240.53-24.85L240.53-24.85 234.28-0.45Q234.23 0 233.73 0L233.73 0 229.88 0Q229.43 0 229.33-0.45L229.33-0.45 225.28-17.1Q225.23-17.25 225.18-17.25 225.13-17.25 225.08-17.1L225.08-17.1 221.18-0.45Q221.08 0 220.63 0L220.63 0 216.88 0ZM253.27-3.75Q254.97-3.75 256.15-4.58 257.32-5.4 257.92-6.85L257.92-6.85Q258.07-7.3 258.52-7.2L258.52-7.2 261.92-6.45Q262.42-6.3 262.27-5.85L262.27-5.85Q261.32-2.9 258.97-1.25 256.62 0.4 253.22 0.4L253.22 0.4Q249.32 0.4 246.92-1.55 244.52-3.5 243.87-6.9L243.87-6.9Q243.62-8.3 243.55-9.88 243.47-11.45 243.47-14.05L243.47-14.05Q243.47-16.6 243.72-18.1L243.72-18.1Q244.17-21.6 246.67-23.73 249.17-25.85 252.97-25.85L252.97-25.85Q257.12-25.85 259.67-23.5 262.22-21.15 262.52-17.3L262.52-17.3Q262.67-15.6 262.67-11.05L262.67-11.05Q262.67-10.55 262.17-10.55L262.17-10.55 248.47-10.55Q248.27-10.55 248.27-10.35L248.27-10.35Q248.27-8.95 248.42-7.9L248.42-7.9Q248.67-6.05 249.97-4.9 251.27-3.75 253.27-3.75L253.27-3.75ZM253.02-21.7Q251.12-21.7 249.9-20.55 248.67-19.4 248.42-17.55L248.42-17.55Q248.27-16.2 248.27-14.6L248.27-14.6Q248.27-14.4 248.47-14.4L248.47-14.4 257.67-14.4Q257.87-14.4 257.87-14.6L257.87-14.6Q257.77-16.6 257.67-17.5L257.67-17.5Q257.42-19.35 256.17-20.53 254.92-21.7 253.02-21.7L253.02-21.7ZM278.47-25.7Q279.97-25.7 281.02-25.1L281.02-25.1Q281.37-24.95 281.27-24.5L281.27-24.5 280.52-20.7Q280.47-20.2 279.92-20.4L279.92-20.4Q279.17-20.65 278.27-20.65L278.27-20.65Q277.62-20.65 277.32-20.6L277.32-20.6Q275.37-20.45 274.07-18.82 272.77-17.2 272.77-14.95L272.77-14.95 272.77-0.5Q272.77 0 272.27 0L272.27 0 268.47 0Q267.97 0 267.97-0.5L267.97-0.5 267.97-24.95Q267.97-25.45 268.47-25.45L268.47-25.45 272.27-25.45Q272.77-25.45 272.77-24.95L272.77-24.95 272.77-21.75Q272.77-21.6 272.85-21.58 272.92-21.55 272.97-21.65L272.97-21.65Q274.77-25.7 278.47-25.7L278.47-25.7Z" opacity="1" transform="matrix(1,0,0,1,0,0)" fill="#0d73fc" class="undefined-text-0" data-fill-palette-color="primary" id="text-0"></path></svg></g></svg></g></svg></g></svg></g></svg></g></svg></g></svg></g><path d="M183.909 97.379L183.909 35.129 6.966 35.129 6.966 212.071 183.909 212.071 183.909 149.821 180.261 149.821 180.261 208.424 10.613 208.424 10.613 38.776 180.261 38.776 180.261 97.379Z" fill="#0d73fc" stroke="transparent" data-fill-palette-color="primary"></path></svg></g><defs></defs></svg><rect width="395.52" height="247.2" fill="none" stroke="none" visibility="hidden"></rect></g></svg></g></svg>