<?xml version="1.0" standalone="no"?>
<!DOCTYPE svg PUBLIC "-//W3C//DTD SVG 20010904//EN"
 "http://www.w3.org/TR/2001/REC-SVG-20010904/DTD/svg10.dtd">
<svg version="1.0" xmlns="http://www.w3.org/2000/svg"
 width="144.000000pt" height="144.000000pt" viewBox="0 0 144.000000 144.000000"
 preserveAspectRatio="xMidYMid meet">
<metadata>
Created by potrace 1.14, written by Peter Selinger 2001-2017
</metadata>
<g transform="translate(0.000000,144.000000) scale(0.100000,-0.100000)"
fill="#000000" stroke="none">
<path d="M612 1369 c-121 -20 -259 -93 -348 -184 -265 -272 -236 -715 65 -955
127 -102 223 -135 391 -135 130 0 184 12 281 62 162 83 280 227 335 408 30 95
25 267 -9 371 -99 301 -403 485 -715 433z m263 -39 c323 -83 519 -417 435
-745 -83 -323 -417 -519 -745 -435 -323 83 -519 417 -435 745 83 323 417 519
745 435z"/>
<path d="M380 735 l0 -365 160 0 160 0 0 75 0 75 -64 0 -63 0 -7 46 c-3 26 -6
60 -6 75 0 29 1 29 60 29 l60 0 0 70 0 70 -54 0 -53 0 -7 46 c-13 96 -14 94
59 94 l65 0 0 75 0 75 -155 0 -155 0 0 -365z"/>
<path d="M760 736 l0 -366 90 0 90 0 0 149 0 148 71 5 c124 9 149 42 149 203
0 127 -14 167 -70 200 -30 17 -56 20 -182 23 l-148 4 0 -366z m229 235 c19
-12 27 -116 12 -153 -7 -18 -18 -28 -31 -28 -19 0 -20 6 -20 95 0 97 5 107 39
86z"/>
</g>
</svg>
